<?xml version="1.0" standalone="no"?>
<!DOCTYPE svg PUBLIC "-//W3C//DTD SVG 20010904//EN"
 "http://www.w3.org/TR/2001/REC-SVG-20010904/DTD/svg10.dtd">
<svg version="1.0" xmlns="http://www.w3.org/2000/svg"
 width="736.000000pt" height="729.000000pt" viewBox="0 0 736.000000 729.000000"
 preserveAspectRatio="xMidYMid meet">

<g transform="translate(0.000000,729.000000) scale(0.100000,-0.100000)"
fill="#000000" stroke="none">
<path d="M0 3645 l0 -3645 3680 0 3680 0 0 1871 c0 1862 0 1871 -20 1876 -26
7 -26 29 0 43 24 13 29 63 5 54 -8 -4 -15 -1 -15 5 0 6 7 11 15 11 26 0 17 37
-10 44 -14 4 -25 14 -25 22 0 12 6 15 25 10 l25 -6 0 1355 0 1355 -26 10 c-15
6 -41 8 -58 5 -27 -4 -34 -1 -51 27 -26 41 -39 44 -68 16 -18 -18 -34 -23 -72
-23 -28 0 -55 -4 -61 -8 -7 -4 -19 -1 -27 8 -21 21 -49 19 -80 -5 -25 -20 -28
-20 -51 -5 -29 19 -146 32 -146 16 0 -20 -37 -11 -65 15 -28 25 -29 26 -43 8
-10 -13 -16 -15 -19 -6 -7 18 -33 15 -33 -5 0 -15 -2 -14 -20 2 -15 14 -29 16
-61 11 -25 -4 -46 -2 -54 4 -15 12 -108 23 -101 12 2 -4 -15 -6 -37 -4 -124 9
-174 9 -189 1 -11 -6 -18 -4 -22 6 -3 8 -1 15 4 15 19 0 10 16 -10 17 -11 1
-20 -4 -20 -13 0 -8 5 -14 10 -14 6 0 10 -5 10 -11 0 -7 -11 -9 -32 -4 -27 6
-80 11 -145 14 -6 1 -13 11 -15 24 -3 19 -10 22 -59 25 -54 3 -56 4 -51 27 4
25 -13 35 -21 13 -3 -9 -11 -6 -25 8 -20 21 -20 22 -2 39 17 15 19 15 30 -2
10 -16 11 -14 7 10 -2 15 0 30 4 33 5 3 9 14 9 25 0 23 33 26 52 5 11 -11 15
-11 25 3 12 15 14 14 28 -3 12 -16 17 -17 31 -5 13 10 44 13 123 11 174 -4
235 -7 246 -13 6 -4 21 -5 35 -4 14 1 30 0 35 -4 6 -4 35 -8 65 -10 30 -2 57
-6 60 -10 3 -5 34 -9 70 -10 36 -2 81 -5 100 -7 41 -4 229 -16 280 -18 19 0
37 -4 40 -8 3 -4 53 -10 110 -12 58 -2 147 -8 198 -12 l92 -7 0 116 0 116 -57
-4 c-39 -2 -60 1 -70 11 -19 18 -38 18 -57 -1 -9 -9 -17 -11 -21 -5 -3 6 -17
7 -31 4 -13 -3 -24 -2 -24 3 0 6 -43 11 -97 12 -53 1 -100 4 -104 7 -4 2 -58
6 -119 9 -79 3 -119 9 -136 20 -13 8 -24 11 -24 5 0 -11 -59 -11 -75 0 -9 7
-78 13 -270 26 -89 6 -95 8 -95 39 0 14 -4 25 -10 25 -5 0 -11 10 -11 23 -1
16 -2 18 -6 5 -9 -34 -24 -18 -17 17 l6 35 -65 0 c-61 0 -65 -1 -60 -20 3 -11
14 -25 24 -31 14 -7 18 -18 15 -42 l-3 -32 -71 1 c-68 1 -172 29 -172 46 0 4
-8 7 -17 6 -37 -3 -53 2 -53 17 0 10 10 15 29 15 20 0 30 6 34 20 5 18 0 20
-44 20 l-48 0 6 -30 c3 -19 1 -30 -6 -30 -6 0 -11 14 -11 30 l0 30 -370 0
c-363 0 -370 0 -370 -20 0 -24 -18 -27 -27 -4 -4 11 -8 12 -13 4 -10 -16 -61
-22 -76 -9 -7 6 -17 2 -29 -11 -14 -16 -20 -17 -26 -8 -6 9 -35 13 -86 14 -43
0 -88 4 -100 8 -17 5 -23 3 -23 -8 0 -17 -30 -29 -54 -20 -9 3 -16 17 -16 30
0 22 -4 24 -45 24 -49 0 -56 -10 -31 -46 8 -11 17 -36 21 -56 12 -62 56 -112
118 -131 29 -9 72 -17 95 -17 34 0 42 -3 42 -18 0 -14 7 -18 30 -17 16 1 36 7
44 14 9 7 17 8 20 2 3 -5 -6 -19 -21 -30 -28 -20 -28 -20 -5 -21 13 0 20 -4
17 -10 -3 -5 -2 -10 4 -10 5 0 11 6 14 13 4 9 7 9 18 0 10 -10 9 -17 -10 -37
-13 -14 -31 -23 -42 -21 -10 2 -21 0 -24 -6 -10 -15 -35 -10 -35 6 0 8 6 15
13 15 8 0 7 3 -3 9 -19 13 -33 3 -27 -20 6 -21 -1 -22 -58 -9 -25 5 -44 5 -51
-1 -6 -5 -18 -7 -27 -3 -8 3 -18 1 -22 -5 -10 -18 -36 -13 -33 6 2 10 -4 19
-14 21 -13 2 -18 -3 -18 -17 l0 -20 -34 20 c-19 11 -40 26 -46 34 -6 8 -18 11
-26 8 -8 -3 -14 1 -14 11 0 9 -4 16 -9 16 -9 0 -90 77 -131 126 -27 32 -44 57
-59 91 -5 11 -15 24 -21 28 -7 4 -18 23 -26 41 l-14 34 -2050 0 -2050 0 0
-3645z m5000 3609 c0 -8 -4 -12 -10 -9 -5 3 -10 10 -10 16 0 5 5 9 10 9 6 0
10 -7 10 -16z m-87 -266 c8 -27 1 -38 -24 -38 -21 0 -24 12 -9 41 14 25 26 24
33 -3z m44 -55 c-3 -10 -5 -2 -5 17 0 19 2 27 5 18 2 -10 2 -26 0 -35z m40 15
c-3 -7 -5 -2 -5 12 0 14 2 19 5 13 2 -7 2 -19 0 -25z m47 -1 c4 -19 3 -26 -4
-22 -5 3 -10 18 -10 32 0 32 5 28 14 -10z m96 29 c0 -11 -19 -15 -25 -6 -3 5
1 10 9 10 9 0 16 -2 16 -4z m595 -26 c8 -12 -5 -60 -16 -60 -5 0 -9 16 -9 35
0 33 12 46 25 25z m-51 -42 c20 -29 20 -48 0 -48 -12 0 -15 6 -10 24 4 18 1
28 -11 35 -10 6 -13 11 -6 11 6 0 19 -10 27 -22z m-789 -8 c3 -5 -3 -10 -14
-10 -12 0 -21 5 -21 10 0 6 6 10 14 10 8 0 18 -4 21 -10z m745 -15 c0 -14 -4
-25 -9 -25 -10 0 -21 36 -13 44 12 13 22 5 22 -19z m-4665 -135 c3 -5 1 -10
-4 -10 -6 0 -11 5 -11 10 0 6 2 10 4 10 3 0 8 -4 11 -10z m54 -34 c8 -10 8
-20 -4 -42 -10 -20 -15 -23 -15 -11 0 10 -7 20 -15 23 -8 4 -15 15 -15 25 0
22 32 26 49 5z m-99 -46 c0 -5 -2 -10 -4 -10 -3 0 -8 5 -11 10 -3 6 -1 10 4
10 6 0 11 -4 11 -10z m294 -56 c8 -19 20 -34 26 -34 6 0 6 -9 -1 -27 -5 -14
-8 -32 -5 -39 3 -8 -1 -25 -8 -38 -12 -23 -14 -24 -29 -9 -21 21 -32 11 -18
-15 14 -26 14 -75 1 -67 -5 3 -10 15 -10 26 0 26 -24 24 -38 -3 -10 -22 -11
-22 -11 -3 -1 11 6 31 15 43 16 24 12 42 -12 42 -8 0 -14 7 -14 16 0 11 6 15
19 11 12 -3 27 4 40 19 27 31 26 32 -6 36 -23 3 -27 7 -26 36 1 17 2 34 2 36
1 3 14 4 30 4 22 -1 32 -8 45 -34z m-147 -26 c-3 -8 -6 -5 -6 6 -1 11 2 17 5
13 3 -3 4 -12 1 -19z m213 -34 c0 -10 5 -14 16 -10 19 7 64 -21 64 -40 0 -8 5
-14 10 -14 6 0 10 -7 10 -15 0 -22 -27 -18 -33 5 -3 11 -11 20 -17 20 -9 0
-10 -13 -5 -46 l7 -46 -23 20 c-14 13 -19 27 -15 38 8 21 -2 56 -15 49 -5 -4
-9 -3 -9 2 0 4 -3 18 -6 31 -4 13 -2 22 5 22 6 0 11 -7 11 -16z m157 -146 c-3
-8 -6 -5 -6 6 -1 11 2 17 5 13 3 -3 4 -12 1 -19z m-327 -10 c0 -16 -3 -19 -11
-11 -6 6 -8 16 -5 22 11 17 16 13 16 -11z m418 -10 c-2 -6 -10 -14 -16 -16 -7
-2 -10 2 -6 12 7 18 28 22 22 4z m-314 -49 c-9 -18 -10 -30 -4 -34 6 -3 10
-14 10 -23 0 -13 -6 -10 -27 11 -25 25 -26 29 -12 37 9 6 20 22 24 37 5 20 9
23 15 13 5 -8 3 -25 -6 -41z m578 -51 c7 -18 -2 -39 -13 -32 -12 7 -12 44 0
44 5 0 11 -6 13 -12z m-349 -23 c-6 -16 -16 -19 -26 -8 -9 8 13 34 24 28 4 -3
6 -12 2 -20z m277 0 c0 -8 -2 -15 -4 -15 -2 0 -6 7 -10 15 -3 8 -1 15 4 15 6
0 10 -7 10 -15z m120 -4 c0 -11 -4 -23 -10 -26 -6 -4 -10 5 -10 19 0 14 5 26
10 26 6 0 10 -9 10 -19z m40 -17 c0 -8 -4 -12 -10 -9 -5 3 -10 13 -10 21 0 8
5 12 10 9 6 -3 10 -13 10 -21z m1170 -392 c0 -12 107 -35 120 -27 6 4 16 2 23
-3 19 -15 68 -25 128 -27 45 -2 64 -8 93 -30 20 -15 36 -31 36 -36 0 -5 8 -9
19 -9 10 0 24 -7 31 -15 7 -8 23 -15 36 -15 16 0 31 -11 46 -35 13 -19 29 -33
36 -30 6 3 19 8 27 11 13 5 15 -1 13 -29 -1 -20 1 -39 5 -43 4 -4 7 0 7 8 0
11 6 14 20 11 11 -3 18 -9 15 -13 -2 -4 12 -28 32 -54 26 -33 39 -43 48 -36
18 15 25 2 25 -46 0 -29 -6 -47 -17 -56 -12 -8 -18 -26 -18 -49 0 -33 2 -35
20 -25 11 6 23 16 27 21 4 6 8 -14 8 -42 0 -37 -4 -52 -12 -50 -7 1 -12 -6
-12 -16 1 -13 -3 -16 -16 -12 -21 7 -32 -15 -19 -36 5 -8 9 -22 9 -31 0 -15
-4 -15 -31 -6 -37 13 -42 8 -30 -26 9 -21 8 -26 -5 -26 -8 0 -18 -8 -21 -17
-4 -10 -9 -20 -12 -23 -12 -11 -31 -50 -31 -66 0 -11 6 -15 20 -11 26 7 37
-11 16 -26 -14 -10 -14 -17 -4 -45 10 -26 10 -37 0 -52 -6 -11 -12 -24 -12
-30 0 -16 28 -12 38 6 7 13 13 14 29 5 11 -5 24 -7 29 -3 5 4 -2 -5 -15 -21
-23 -26 -24 -28 -8 -44 15 -15 17 -16 17 -1 0 8 7 21 15 28 12 10 15 10 15 -2
0 -8 -4 -18 -10 -24 -6 -6 -6 -15 0 -24 5 -8 10 -10 10 -4 0 13 110 127 116
121 3 -2 -1 -16 -7 -30 -9 -21 -9 -30 1 -42 10 -12 10 -15 -3 -15 -30 0 -28
-20 4 -50 18 -16 30 -33 25 -37 -4 -4 -11 -2 -15 5 -6 10 -15 10 -34 3 -35
-14 -36 -40 -2 -33 20 3 25 0 25 -16 0 -11 -7 -22 -15 -26 -9 -3 -15 -18 -15
-35 0 -23 5 -30 27 -35 15 -4 29 -3 33 4 4 6 14 8 23 4 13 -4 17 -1 17 15 0
11 9 26 20 33 11 7 20 21 20 31 0 10 -4 15 -10 12 -5 -3 -10 -2 -10 2 0 5 10
13 22 18 12 6 29 23 38 40 8 16 20 34 27 40 13 11 36 123 27 136 -3 5 -13 9
-22 9 -14 1 -13 3 4 13 17 10 20 17 13 36 -8 20 -14 22 -43 17 -44 -8 -66 1
-66 29 0 30 20 43 32 21 5 -9 13 -14 19 -11 5 4 9 1 9 -5 0 -7 7 -9 15 -6 9 3
18 -1 21 -9 4 -8 11 -15 18 -15 6 0 17 -9 24 -21 13 -20 14 -20 35 13 33 49
67 124 96 208 30 89 53 152 71 195 10 22 20 54 24 70 4 17 22 71 41 120 19 50
46 123 61 163 15 40 31 75 34 77 4 3 8 -21 8 -52 0 -32 5 -59 11 -61 6 -2 11
-8 11 -14 0 -5 9 -21 20 -35 30 -38 25 -55 -33 -114 -34 -35 -61 -75 -76 -114
-27 -67 -51 -107 -51 -86 0 8 -3 11 -6 8 -4 -4 -1 -14 7 -23 11 -13 11 -18 2
-21 -7 -3 -13 -16 -13 -29 0 -13 -4 -24 -10 -24 -7 0 -23 -51 -25 -83 0 -4 -6
-11 -12 -15 -7 -5 -14 -28 -17 -52 -2 -26 -12 -54 -24 -67 -11 -13 -24 -33
-28 -46 -3 -12 -11 -27 -16 -34 -5 -7 -7 -16 -4 -21 7 -11 -28 -122 -41 -130
-6 -4 -13 -18 -17 -32 -4 -14 -11 -34 -15 -45 -5 -11 -14 -33 -20 -48 -6 -15
-11 -41 -11 -57 0 -20 -5 -30 -15 -30 -10 0 -15 -10 -15 -29 0 -16 -7 -34 -15
-41 -8 -7 -15 -23 -15 -36 0 -12 -4 -25 -9 -28 -5 -3 -7 -14 -4 -25 2 -10 -3
-25 -11 -34 -9 -8 -16 -24 -16 -34 0 -29 -25 -93 -46 -116 -10 -12 -20 -33
-21 -46 -1 -13 -9 -31 -17 -40 -9 -10 -16 -27 -16 -38 0 -11 -6 -26 -14 -32
-8 -7 -17 -27 -20 -46 -4 -19 -11 -35 -16 -35 -6 0 -10 -10 -10 -22 0 -51 -21
-98 -45 -104 -21 -5 -25 -13 -27 -48 -1 -22 -1 -50 0 -61 2 -41 -7 -50 -28
-27 -21 23 -26 48 -10 54 5 2 11 28 13 58 3 30 10 68 16 83 6 16 8 33 5 38 -6
11 21 75 36 84 12 8 13 45 1 45 -4 0 -19 11 -32 24 -21 20 -27 22 -42 12 -9
-7 -14 -15 -11 -18 3 -4 0 -9 -5 -13 -6 -3 -14 1 -17 9 -11 28 -24 17 -24 -18
0 -19 -4 -38 -10 -41 -5 -3 -10 1 -10 9 0 9 -4 16 -9 16 -6 0 -16 12 -23 27
-13 28 -55 56 -70 47 -4 -3 -1 -12 7 -20 17 -17 20 -28 5 -19 -5 3 -10 2 -10
-3 0 -5 -13 -26 -30 -47 -16 -21 -30 -48 -30 -61 0 -25 -15 -33 -22 -12 -5 14
-44 -39 -50 -67 -2 -14 -10 -19 -25 -17 -17 2 -24 -3 -29 -23 -5 -21 -9 -23
-20 -14 -8 7 -12 20 -9 30 8 25 -6 24 -40 -3 l-28 -22 -18 22 c-21 27 -29 28
-30 5 -1 -10 -5 0 -9 22 l-7 40 -2 -38 c-1 -40 -21 -43 -21 -3 0 35 -13 39
-25 9 l-12 -28 -16 35 c-9 19 -18 55 -19 80 -4 43 -4 44 -15 20 -7 -14 -12
-19 -12 -12 -1 6 -12 12 -25 12 -13 0 -30 10 -38 22 -13 20 -17 21 -32 9 -15
-12 -19 -11 -37 8 -28 30 -64 25 -65 -9 0 -14 -5 -34 -12 -45 -11 -20 -11 -20
-12 1 0 30 -11 36 -27 16 -10 -14 -12 -14 -8 -1 3 9 -1 22 -9 29 -18 14 -23 6
-29 -50 -4 -33 -4 -32 -5 8 -2 35 -5 42 -22 42 -11 0 -23 -7 -26 -15 -4 -10
-13 -13 -25 -10 -14 5 -22 0 -28 -17 -10 -23 -10 -23 -10 4 -1 41 -21 45 -21
4 0 -25 -7 -40 -25 -54 -23 -18 -37 -61 -16 -47 5 3 23 7 40 9 25 3 31 0 31
-16 0 -11 -5 -16 -10 -13 -16 10 -80 -43 -80 -66 0 -11 -7 -22 -15 -25 -10 -4
-13 -13 -10 -25 4 -11 2 -19 -4 -19 -6 0 -11 10 -12 23 0 21 -1 21 -9 2 -5
-11 -12 -33 -16 -50 -4 -19 -9 -24 -11 -14 -3 14 -11 15 -46 8 -23 -4 -68 -11
-101 -14 -44 -5 -59 -11 -63 -25 -4 -13 -14 -17 -39 -16 -26 1 -34 -3 -34 -16
0 -13 -8 -18 -30 -18 -30 0 -30 0 -30 60 l0 60 28 -6 c19 -4 32 0 44 13 19 21
29 91 13 97 -6 3 -4 9 5 15 26 18 3 22 -28 4 -29 -17 -31 -17 -50 1 -15 13
-39 18 -86 20 -36 2 -69 6 -73 10 -9 9 18 27 29 20 4 -3 16 0 25 5 16 9 16 10
-4 11 -13 0 -23 5 -23 10 0 6 10 10 23 10 27 0 54 16 44 27 -5 4 -22 7 -40 8
-28 0 -32 3 -35 31 -2 22 -9 34 -24 37 -25 7 -46 -1 -50 -18 -5 -19 -78 31
-78 54 0 25 19 31 63 22 45 -11 57 -19 57 -38 0 -12 7 -14 35 -10 39 6 57 -9
32 -28 -10 -7 -17 -17 -17 -24 0 -14 1 -14 38 4 28 14 30 19 25 52 -5 32 -4
35 11 30 10 -4 29 -10 42 -13 17 -4 24 -13 24 -30 0 -24 14 -32 25 -14 3 5 12
7 19 4 8 -3 21 5 30 18 9 13 16 17 16 9 0 -8 3 -11 7 -8 3 4 -2 15 -11 26 -11
12 -14 21 -7 26 6 3 11 2 11 -3 0 -5 14 -9 30 -9 22 0 30 5 30 19 0 10 5 18
10 18 6 0 10 -7 10 -15 0 -10 10 -15 28 -15 22 0 31 8 47 41 23 49 26 67 14
75 -16 9 -10 20 18 33 19 9 23 15 14 20 -19 12 -3 82 20 88 11 3 19 10 19 15
0 5 9 17 20 26 27 24 17 75 -14 67 -11 -2 -15 -2 -8 1 14 7 16 40 2 49 -17 10
-12 102 5 109 8 3 15 16 15 29 0 13 8 32 19 41 12 11 21 37 25 76 4 33 11 60
16 60 6 0 10 9 10 20 0 11 7 20 15 20 8 0 15 7 15 16 0 8 -4 12 -10 9 -5 -3
-10 3 -10 14 0 11 4 22 8 25 4 2 9 33 10 67 1 35 6 67 11 72 11 11 3 39 -9 32
-14 -9 -23 15 -25 68 -2 28 -8 53 -14 55 -6 2 -11 12 -11 22 0 9 -7 23 -15 30
-9 7 -14 19 -11 27 3 7 -1 13 -10 13 -8 0 -28 14 -44 30 -16 17 -31 30 -34 30
-11 0 -56 48 -57 61 0 10 -2 11 -6 1 -9 -23 -22 -1 -29 49 -5 38 -10 49 -23
47 -10 -2 -17 5 -19 19 -3 17 1 20 17 16 16 -4 21 -1 21 16 0 19 -3 20 -21 11
-18 -10 -20 -9 -17 12 2 13 11 24 23 26 11 2 30 16 42 31 19 22 22 23 23 7 0
-15 3 -16 15 -6 9 8 13 21 9 36 -5 20 -2 24 17 24 12 0 31 8 41 17 17 15 21
15 29 3 7 -12 10 -11 15 8 6 22 24 31 24 12 0 -5 15 -1 34 9 33 19 86 23 97 8
9 -12 39 3 39 19 0 18 47 17 105 -2 45 -14 115 0 115 23 0 7 9 13 20 13 11 0
20 -4 20 -8z m1550 -16 c0 -3 -4 -8 -10 -11 -5 -3 -10 -1 -10 4 0 6 5 11 10
11 6 0 10 -2 10 -4z m-2470 -227 c0 -5 -4 -9 -10 -9 -5 0 -10 7 -10 16 0 8 5
12 10 9 6 -3 10 -10 10 -16z m123 -22 c-13 -18 -20 -21 -29 -13 -9 8 -8 12 4
14 10 2 21 8 27 13 17 16 16 9 -2 -14z m107 19 c0 -3 -4 -8 -10 -11 -5 -3 -10
-1 -10 4 0 6 5 11 10 11 6 0 10 -2 10 -4z m-245 -46 c3 -5 1 -10 -4 -10 -6 0
-11 5 -11 10 0 6 2 10 4 10 3 0 8 -4 11 -10z m-53 -183 c-21 -13 -27 0 -12 30
l13 28 7 -25 c4 -17 2 -28 -8 -33z m-375 -99 c14 -16 14 -18 -2 -24 -13 -5 -6
-12 33 -31 52 -25 76 -61 65 -101 -2 -11 3 -43 11 -72 20 -67 20 -79 1 -54
-13 17 -17 17 -27 4 -16 -19 -75 -22 -82 -4 -6 16 -86 15 -86 -1 0 -5 -5 -3
-10 5 -9 13 -12 13 -20 -2 -10 -17 -50 -14 -50 4 0 5 -10 18 -22 29 -13 10
-17 18 -10 19 14 0 17 20 2 20 -5 0 -13 -12 -16 -27 -12 -45 -52 -70 -69 -43
-3 6 3 10 14 10 12 0 21 5 21 10 0 6 -11 10 -25 10 -14 0 -25 5 -25 10 0 6
-12 10 -26 10 -14 0 -23 4 -20 9 4 5 -10 5 -32 0 -20 -5 -43 -9 -49 -9 -21 0
-15 21 7 27 11 3 20 10 19 17 -3 29 2 47 12 40 6 -3 16 0 21 7 8 11 11 11 15
1 4 -10 7 -10 17 1 6 8 30 17 54 21 34 5 42 3 42 -9 0 -16 12 -20 23 -8 4 3 2
12 -5 20 -9 11 -6 19 16 38 23 20 31 22 47 12 25 -16 39 3 39 56 0 44 21 50
50 15 l19 -23 13 35 c10 28 13 31 16 15 2 -11 11 -28 19 -37z m317 20 c4 -17
2 -28 -4 -28 -5 0 -10 14 -10 32 0 36 4 35 14 -4z m-30 -126 c-10 -43 -31 -55
-27 -17 6 68 14 122 20 140 13 35 19 -75 7 -123z m-419 119 c3 -5 1 -12 -5
-16 -5 -3 -10 1 -10 9 0 18 6 21 15 7z m-35 -34 c0 -7 -9 -13 -20 -14 -17 -2
-18 1 -10 18 11 20 30 17 30 -4z m417 -9 c-3 -7 -5 -2 -5 12 0 14 2 19 5 13 2
-7 2 -19 0 -25z m413 -30 c0 -5 -7 -3 -15 6 -8 8 -15 18 -15 22 0 3 7 1 15 -6
8 -7 15 -17 15 -22z m2666 -7 c7 6 15 6 18 1 3 -5 25 -6 48 -3 79 11 601 1
614 -12 16 -15 -9 -19 -131 -20 -85 0 -124 -4 -122 -11 2 -6 11 -11 20 -11 23
0 30 -11 21 -37 l-7 -23 -8 23 c-5 13 -17 22 -31 23 -72 4 -89 1 -103 -17 -13
-19 -14 -19 -28 0 -12 17 -14 17 -20 2 -4 -9 -16 -16 -29 -16 -21 0 -21 0 5
-28 15 -15 27 -32 27 -36 0 -15 53 -76 66 -76 17 0 33 -28 27 -50 -3 -10 5
-28 16 -39 16 -16 21 -17 21 -6 0 8 -4 15 -10 15 -5 0 -10 9 -10 20 0 20 11
26 24 13 4 -4 15 -8 24 -8 11 0 16 -7 14 -18 -7 -40 19 -87 55 -102 57 -24 26
-36 -89 -36 -47 0 -48 -1 -45 -31 3 -37 -32 -57 -57 -33 -17 18 -33 19 -38 4
-2 -6 -20 -11 -41 -11 -41 0 -52 -17 -12 -19 41 -2 43 -3 65 -22 14 -12 26
-15 33 -9 12 10 44 8 55 -2 3 -3 -4 -6 -15 -6 -11 0 -26 -7 -33 -15 -11 -14
-14 -13 -25 1 -8 11 -19 14 -33 10 -29 -10 -28 -24 3 -36 15 -6 25 -17 25 -30
0 -27 -34 -26 -54 1 -17 25 -52 19 -42 -7 16 -43 18 -64 4 -64 -8 0 -19 5 -25
11 -17 17 -42 -11 -33 -36 8 -19 8 -19 15 -2 6 14 15 18 36 13 22 -4 29 -1 34
14 7 21 30 27 40 10 3 -5 -1 -10 -9 -10 -11 0 -16 -9 -16 -26 0 -17 -6 -28
-20 -31 -11 -3 -20 -9 -20 -14 0 -15 -48 -10 -52 5 -3 13 -6 13 -22 0 -19 -14
-19 -14 1 -14 12 0 25 -4 28 -10 3 -5 26 -10 51 -10 24 0 44 -5 44 -11 0 -6
10 -9 23 -7 14 2 22 10 22 22 0 10 10 22 23 27 20 8 22 5 22 -26 0 -29 4 -34
30 -40 16 -4 34 -4 39 0 13 8 61 -5 61 -16 0 -5 -8 -12 -17 -15 -10 -3 -28
-11 -40 -16 -12 -6 -29 -8 -38 -4 -14 5 -16 2 -11 -19 6 -25 -7 -35 -19 -15
-5 8 -11 7 -21 -1 -11 -9 -18 -9 -26 -1 -19 19 -48 14 -59 -11 -15 -33 -36
-30 -49 6 -10 29 -11 29 -24 12 -12 -17 -14 -16 -21 11 l-7 29 -13 -35 c-11
-27 -14 -30 -14 -12 -1 12 -5 22 -11 22 -5 0 -10 7 -10 15 0 11 -11 15 -40 15
l-40 0 27 30 c15 17 33 28 40 26 21 -8 27 16 8 30 -11 8 -16 21 -12 34 3 13
-1 24 -13 30 -22 12 -50 3 -50 -16 0 -21 -17 -17 -23 7 -3 11 -11 19 -19 18
-23 -5 -57 11 -60 28 -3 15 -4 15 -20 0 -13 -13 -17 -14 -21 -3 -7 17 -67 12
-79 -7 -4 -6 -5 -20 -2 -29 4 -14 0 -18 -20 -18 -15 0 -26 6 -26 14 0 16 -49
9 -51 -8 -1 -6 -2 -18 -3 -26 -1 -10 -10 -14 -31 -13 -16 1 -25 -1 -19 -5 25
-16 11 -41 -27 -47 -61 -10 -64 -4 -44 83 4 18 12 35 16 38 5 3 9 14 9 25 0
10 5 29 12 42 24 46 28 57 28 71 0 17 52 150 91 232 16 33 29 65 29 70 0 6 11
34 25 62 14 29 25 54 25 58 0 3 11 29 25 59 21 43 33 56 60 65 19 6 35 15 35
18 0 12 45 29 54 20 5 -4 15 -3 22 3z m-1016 -104 c0 -16 -3 -15 -30 5 -30 22
-35 30 -24 41 10 10 53 -27 54 -46z m-118 21 c-14 -14 -16 -38 -3 -38 5 0 13
9 16 20 4 11 11 18 16 15 14 -9 11 -36 -6 -49 -8 -6 -18 -27 -22 -46 -6 -32
-5 -34 10 -21 15 12 17 11 17 -8 0 -11 -4 -21 -9 -21 -5 0 -12 -11 -15 -25 -6
-24 -26 -36 -26 -15 0 14 -37 13 -46 -1 -6 -10 6 -23 31 -32 6 -3 7 -8 3 -12
-4 -4 -15 -2 -24 6 -14 11 -20 8 -49 -25 -20 -24 -35 -34 -39 -27 -4 6 0 18 8
27 9 8 16 18 17 22 1 4 2 21 4 37 5 51 16 74 31 68 25 -9 65 37 64 72 -3 54 0
65 17 65 13 0 14 -3 5 -12z m-2025 -9 c14 -14 5 -49 -12 -49 -13 0 -25 21 -25
46 0 17 21 19 37 3z m1925 -61 c-15 -15 -27 14 -17 40 6 15 8 15 18 -6 7 -16
7 -26 -1 -34z m2243 28 c11 -8 25 -12 32 -9 7 3 13 0 13 -6 0 -6 -4 -11 -10
-11 -5 0 -10 -7 -10 -15 0 -8 -6 -15 -14 -15 -25 0 -46 12 -46 26 0 8 -10 14
-23 14 -13 0 -32 7 -43 15 -17 13 -15 14 32 15 27 0 59 -6 69 -14z m-2198 -18
c-3 -8 -6 -5 -6 6 -1 11 2 17 5 13 3 -3 4 -12 1 -19z m263 -3 c0 -8 -4 -15
-10 -15 -5 0 -10 7 -10 15 0 8 5 15 10 15 6 0 10 -7 10 -15z m-2750 -25 c0 -5
-4 -10 -10 -10 -5 0 -10 5 -10 10 0 6 5 10 10 10 6 0 10 -4 10 -10z m4770 -11
c0 -5 -9 -9 -20 -9 -22 0 -27 16 -7 23 15 5 27 -1 27 -14z m-2042 -12 c2 -10
-3 -17 -12 -17 -10 0 -16 9 -16 21 0 24 23 21 28 -4z m-318 3 c0 -5 -7 -10
-15 -10 -8 0 -15 5 -15 10 0 6 7 10 15 10 8 0 15 -4 15 -10z m-2359 -68 c33 2
50 -3 44 -12 -3 -5 -28 -10 -55 -10 -48 0 -67 10 -55 30 3 5 15 6 29 0 12 -4
29 -8 37 -8z m486 -4 c-3 -8 -6 -5 -6 6 -1 11 2 17 5 13 3 -3 4 -12 1 -19z
m-602 2 c4 -6 -5 -10 -19 -10 -14 0 -26 5 -26 10 0 6 9 10 19 10 11 0 23 -4
26 -10z m2745 -40 c0 -14 -23 -27 -41 -23 -31 8 -23 32 11 31 17 -1 30 -4 30
-8z m-2713 -14 c-4 -10 -1 -13 9 -9 7 3 14 0 14 -6 0 -16 -26 -25 -47 -16 -12
5 -14 9 -5 12 6 3 12 11 12 19 0 8 5 14 11 14 6 0 9 -7 6 -14z m95 -18 c-6 -6
-16 -7 -22 -3 -9 6 -9 9 1 16 17 10 34 0 21 -13z m2408 -27 c0 -6 -4 -13 -10
-16 -5 -3 -10 1 -10 9 0 9 5 16 10 16 6 0 10 -4 10 -9z m-2570 -16 c5 3 17 2
26 -3 15 -8 15 -10 -1 -16 -9 -3 -21 -4 -26 0 -5 3 -9 1 -9 -4 0 -5 18 -10 41
-10 33 -1 38 2 29 13 -6 7 -7 16 -2 19 12 7 52 -4 52 -15 0 -5 7 -9 15 -9 8 0
15 -5 15 -11 0 -8 5 -8 15 1 8 7 15 19 15 26 0 19 21 17 48 -5 26 -22 28 -31
7 -31 -8 0 -15 -6 -15 -14 0 -18 16 -30 24 -18 3 5 20 7 38 4 33 -5 60 -25 71
-52 3 -9 6 -5 7 10 1 23 2 24 14 8 14 -20 36 -24 36 -8 0 6 4 10 8 10 4 0 9
-16 10 -36 l3 -37 -46 5 c-38 5 -45 3 -43 -11 2 -11 -4 -16 -19 -15 -28 1 -28
-1 -4 -33 35 -44 7 -66 -55 -43 -20 8 -31 7 -43 -4 -13 -11 -46 -14 -161 -11
-172 3 -161 1 -154 20 4 9 0 15 -10 15 -9 0 -16 -4 -16 -10 0 -17 -39 -50 -59
-50 -23 0 -31 17 -24 54 7 34 -5 43 -52 41 -32 -1 -35 2 -35 27 0 27 9 32 57
31 6 0 17 12 23 28 7 16 21 31 31 34 10 4 26 13 34 22 12 12 19 12 30 3 17
-14 35 -5 35 17 0 11 6 14 24 9 20 -5 24 -2 23 13 -1 12 -7 17 -19 13 -23 -6
-24 14 -1 27 11 6 24 6 35 0 10 -6 23 -7 28 -4z m459 -150 c0 -5 -4 -3 -9 5
-5 8 -9 22 -9 30 0 16 17 -16 18 -35z m3901 -40 c6 -8 9 -19 5 -25 -7 -11 -34
15 -35 33 0 12 17 8 30 -8z m40 -17 c0 -16 -3 -19 -11 -11 -6 6 -8 16 -5 22
11 17 16 13 16 -11z m-4760 -8 c0 -5 -2 -10 -4 -10 -3 0 -8 5 -11 10 -3 6 -1
10 4 10 6 0 11 -4 11 -10z m1663 -81 c5 -4 6 -12 2 -19 -11 -18 -36 16 -27 38
5 13 6 14 10 1 3 -7 9 -17 15 -20z m2831 15 c9 -23 7 -36 -3 -30 -12 8 -21 46
-11 46 4 0 11 -7 14 -16z m210 0 c17 -16 20 -46 7 -77 -6 -17 -8 -17 -19 -4
-10 12 -10 18 3 30 21 21 19 29 -7 27 -28 -2 -68 10 -68 20 0 22 63 25 84 4z
m-3572 -41 l23 -38 6 35 c4 27 7 31 13 18 5 -10 6 -24 3 -32 -3 -8 1 -20 8
-26 12 -10 16 -9 21 4 8 21 21 20 26 -2 4 -12 18 -21 40 -25 38 -6 138 -75
138 -94 0 -7 5 -13 10 -13 6 0 10 5 10 10 0 6 4 10 9 10 5 0 9 -16 9 -35 0
-19 -4 -38 -9 -41 -5 -3 -9 -21 -9 -40 0 -24 -5 -34 -15 -34 -8 0 -15 -7 -15
-15 0 -8 4 -15 10 -15 5 0 7 -7 4 -15 -8 -20 -33 -19 -55 1 -17 15 -20 15 -34
1 -16 -16 -50 -12 -39 4 3 5 2 9 -1 9 -10 0 -35 -28 -35 -39 0 -15 -18 -23
-39 -16 -16 5 -17 11 -10 48 11 55 11 59 0 53 -10 -7 -25 22 -22 42 1 6 -3 12
-10 12 -7 0 -9 -9 -6 -21 3 -12 1 -19 -6 -16 -6 2 -14 14 -17 28 -3 13 -12 24
-20 24 -8 0 -21 12 -28 28 -7 15 -27 34 -43 43 -23 11 -28 18 -20 28 7 8 9 36
5 74 l-7 61 34 9 c19 6 37 11 41 11 3 1 17 -16 30 -36z m-650 -3 c12 -11 30
-20 40 -20 11 0 16 -4 13 -10 -3 -5 -16 -10 -28 -10 -12 0 -31 -12 -44 -27
-17 -21 -22 -24 -23 -11 0 9 5 18 12 20 17 6 1 38 -19 38 -10 0 -25 5 -33 10
-13 9 -13 11 0 20 24 16 59 12 82 -10z m4326 -23 c4 -22 5 -53 3 -94 -2 -40
-21 -25 -21 16 0 22 -4 43 -10 46 -14 9 -12 52 3 58 16 6 20 1 25 -26z m-3828
3 c0 -11 -4 -20 -10 -20 -5 0 -10 9 -10 20 0 11 5 20 10 20 6 0 10 -9 10 -20z
m3560 -10 c0 -11 -4 -20 -10 -20 -5 0 -10 9 -10 20 0 11 5 20 10 20 6 0 10 -9
10 -20z m29 -27 c-1 -39 -2 -43 -9 -23 -12 36 -12 70 0 70 6 0 10 -21 9 -47z
m344 40 c-7 -3 -13 -11 -13 -19 0 -8 6 -11 15 -8 9 4 15 0 15 -10 0 -15 -12
-21 -35 -16 -5 1 -18 2 -27 3 -25 2 -23 17 2 17 25 0 26 16 3 29 -14 8 -11 10
17 9 19 -1 29 -3 23 -5z m-312 -46 c-13 -13 -15 1 -4 30 7 17 8 17 11 -1 2
-10 -1 -23 -7 -29z m-4473 -1 c-10 -7 -18 -19 -18 -26 0 -18 30 -50 47 -50 7
0 13 -4 13 -10 0 -5 -6 -10 -14 -10 -8 0 -16 -6 -19 -14 -10 -24 6 -27 29 -5
19 18 25 19 43 7 12 -7 21 -18 21 -25 0 -8 15 -13 41 -13 32 0 40 3 35 15 -3
9 0 15 8 15 8 0 22 3 32 7 13 5 11 -2 -9 -22 -37 -40 -35 -60 5 -63 42 -3 44
-6 19 -31 -23 -23 -63 -28 -60 -8 3 27 -2 36 -32 46 -22 8 -35 7 -49 -1 -26
-17 -37 -2 -17 20 10 10 14 21 11 25 -10 10 -44 -12 -44 -28 0 -8 -9 -19 -21
-25 -19 -11 -20 -10 -9 9 9 17 8 22 -4 27 -21 8 -36 -3 -36 -27 0 -25 -12 -24
-35 1 -18 20 -18 21 3 27 27 7 29 33 2 40 -11 3 -20 14 -20 24 0 29 -19 32
-26 4 -3 -14 -10 -25 -15 -25 -5 0 -8 -3 -7 -7 2 -5 -1 -8 -7 -8 -5 0 -9 5 -7
11 1 7 -7 15 -18 19 -32 10 -68 54 -63 76 3 10 8 19 12 20 3 0 23 2 43 5 31 4
38 1 43 -17 7 -21 7 -21 19 2 8 17 22 25 46 27 19 2 39 8 45 13 5 5 13 5 20
-2 7 -7 5 -14 -7 -23z m46 28 c23 -9 20 -24 -4 -24 -11 0 -20 7 -20 15 0 17 2
18 24 9z m4291 -4 c3 -5 -1 -10 -9 -10 -9 0 -16 5 -16 10 0 6 4 10 9 10 6 0
13 -4 16 -10z m246 -47 c-8 -15 -10 -15 -11 -2 0 17 10 32 18 25 2 -3 -1 -13
-7 -23z m-4867 -24 c-3 -5 -11 -9 -19 -9 -8 0 -18 -6 -22 -13 -12 -20 -62 -51
-70 -43 -4 3 3 13 15 22 12 8 22 22 22 31 0 10 6 13 16 9 18 -7 47 17 36 30
-4 5 1 2 10 -5 10 -7 15 -17 12 -22z m5111 21 c3 -5 1 -10 -4 -10 -6 0 -11 5
-11 10 0 6 2 10 4 10 3 0 8 -4 11 -10z m-5227 -12 c-6 -18 -25 -20 -31 -3 -5
10 0 15 14 15 12 0 19 -5 17 -12z m5192 -17 c0 -23 -16 -36 -25 -21 -9 14 1
40 15 40 5 0 10 -9 10 -19z m-5327 2 c2 7 8 9 12 4 10 -9 -24 -36 -46 -37 -17
0 -32 23 -22 33 3 3 16 2 28 -3 16 -6 25 -5 28 3z m870 -24 c-15 -14 -83 -22
-83 -10 0 6 8 14 18 17 9 3 24 9 32 14 17 9 45 -9 33 -21z m-807 -3 c18 -19
18 -23 -4 -28 -11 -3 -23 2 -30 12 -18 30 8 41 34 16z m206 -23 c27 -24 22
-36 -7 -17 -14 9 -25 20 -25 25 0 14 11 11 32 -8z m578 -58 c0 -8 -4 -15 -10
-15 -5 0 -10 7 -10 15 0 8 5 15 10 15 6 0 10 -7 10 -15z m3700 -5 c0 -5 -7
-10 -15 -10 -8 0 -15 5 -15 10 0 6 7 10 15 10 8 0 15 -4 15 -10z m447 -22 c-3
-8 -6 -5 -6 6 -1 11 2 17 5 13 3 -3 4 -12 1 -19z m-357 -12 c0 -9 -30 -14 -35
-6 -4 6 3 10 14 10 12 0 21 -2 21 -4z m-3950 -42 c0 -8 -5 -12 -10 -9 -6 4 -8
11 -5 16 9 14 15 11 15 -7z m4180 6 c0 -5 -7 -10 -15 -10 -8 0 -15 5 -15 10 0
6 7 10 15 10 8 0 15 -4 15 -10z m-4635 -9 c3 -5 1 -12 -5 -16 -5 -3 -10 1 -10
9 0 18 6 21 15 7z m1149 -40 c-5 -6 -34 20 -34 30 0 5 8 1 18 -8 10 -10 17
-20 16 -22z m486 13 c0 -8 -5 -12 -10 -9 -6 4 -8 11 -5 16 9 14 15 11 15 -7z
m-590 -4 c0 -5 -4 -10 -10 -10 -5 0 -10 5 -10 10 0 6 5 10 10 10 6 0 10 -4 10
-10z m80 -30 c0 -5 -2 -10 -4 -10 -3 0 -8 5 -11 10 -3 6 -1 10 4 10 6 0 11 -4
11 -10z m433 -24 c10 -8 15 -20 11 -30 -6 -16 -8 -16 -25 0 -19 17 -26 44 -11
44 4 0 15 -7 25 -14z m-393 -6 c0 -5 -5 -10 -11 -10 -5 0 -7 5 -4 10 3 6 8 10
11 10 2 0 4 -4 4 -10z m5365 -39 c18 -22 18 -24 2 -18 -10 4 -26 1 -37 -5 -30
-19 -36 -1 -9 25 13 13 24 23 24 23 0 -1 9 -12 20 -25z m-5453 -33 c-9 -9 -12
-7 -12 12 0 19 3 21 12 12 9 -9 9 -15 0 -24z m5541 19 c3 -8 1 -20 -4 -28 -6
-10 -9 -7 -9 14 0 29 5 35 13 14z m-47 -38 c-3 -18 -1 -37 4 -44 11 -14 3 -45
-11 -45 -5 0 -9 -23 -9 -51 0 -27 -4 -48 -8 -45 -12 7 -13 116 -2 116 6 0 10
11 10 25 0 14 -4 25 -10 25 -5 0 -10 -9 -10 -20 0 -26 -17 -26 -25 1 -8 25 -3
31 29 33 18 1 26 7 26 19 0 9 3 17 6 17 4 0 4 -14 0 -31z m-6530 -5 c-3 -9 -6
-18 -6 -20 0 -3 -4 -3 -10 1 -11 7 -2 35 12 35 6 0 7 -7 4 -16z m182 -14 c11
0 24 -5 27 -11 4 -6 13 -8 20 -5 7 2 21 -4 30 -14 10 -11 22 -17 27 -14 5 4
19 -4 30 -16 11 -12 26 -19 34 -16 8 3 14 1 14 -4 0 -6 13 -10 28 -10 16 0 37
-7 48 -15 10 -8 32 -15 47 -15 16 0 37 -5 47 -10 13 -7 21 -7 25 0 12 19 27
10 22 -12 -4 -12 -2 -28 4 -34 8 -9 2 -17 -21 -29 -34 -17 -65 -13 -74 10 -4
10 -20 15 -52 15 -44 0 -46 -1 -42 -25 4 -17 1 -25 -9 -25 -8 0 -13 -6 -10
-12 2 -7 18 -13 36 -13 39 -1 60 -25 53 -60 -5 -28 -23 -32 -42 -10 -7 8 -23
15 -36 15 -22 0 -24 -4 -24 -49 0 -28 4 -52 9 -55 12 -8 -9 -64 -27 -71 -8 -3
-20 -1 -27 5 -9 8 -14 6 -18 -4 -3 -8 2 -16 14 -19 20 -5 27 -51 10 -61 -16
-10 -40 5 -44 27 -3 18 -5 16 -12 -10 -7 -32 -27 -43 -40 -23 -9 15 -25 12
-25 -4 0 -7 -12 -16 -27 -18 -16 -3 -36 -9 -45 -13 -15 -6 -18 -2 -18 23 0 36
-18 53 -48 45 -13 -3 -22 -1 -22 6 0 5 -7 8 -15 5 -8 -4 -15 -1 -15 5 0 6 -7
11 -16 11 -16 0 -14 23 8 67 8 16 8 26 0 35 -7 9 -7 20 2 37 9 16 16 20 20 12
6 -9 17 -5 41 13 37 28 60 34 52 13 -3 -8 -1 -20 4 -28 6 -9 9 2 9 34 0 26 5
47 11 47 5 0 9 -8 8 -17 -4 -46 2 -73 16 -73 11 0 15 12 16 43 0 23 3 35 6 27
15 -45 15 -45 24 -22 9 25 29 30 29 7 0 -11 9 -14 30 -12 28 3 55 17 34 17 -5
0 -8 18 -6 41 4 38 6 40 31 35 14 -3 21 -3 14 0 -7 3 -15 21 -19 40 -4 23 -12
34 -23 34 -9 0 -22 5 -29 12 -8 8 -15 8 -27 -2 -12 -10 -18 -8 -34 11 -17 21
-17 25 -3 35 21 16 5 37 -23 30 -15 -4 -25 -1 -29 10 -8 21 -26 8 -27 -19 l0
-22 -9 23 c-5 12 -14 22 -19 22 -18 0 -17 35 3 62 18 25 21 26 36 13 9 -8 26
-15 38 -15z m6226 5 c-4 -8 -10 -15 -15 -15 -5 0 -9 7 -9 15 0 8 7 15 15 15 9
0 12 -6 9 -15z m39 -15 c-3 -11 -7 -20 -9 -20 -2 0 -4 9 -4 20 0 11 4 20 9 20
5 0 7 -9 4 -20z m137 16 c0 -3 -4 -8 -10 -11 -5 -3 -10 -1 -10 4 0 6 5 11 10
11 6 0 10 -2 10 -4z m-6545 -16 c3 -5 1 -10 -4 -10 -6 0 -11 5 -11 10 0 6 2
10 4 10 3 0 8 -4 11 -10z m1202 -6 c-3 -3 -12 -4 -19 -1 -8 3 -5 6 6 6 11 1
17 -2 13 -5z m973 -36 c0 -9 -4 -20 -10 -23 -6 -4 -10 9 -10 32 0 28 3 34 10
23 5 -8 10 -23 10 -32z m-218 -10 c-15 -15 -26 -4 -18 18 5 13 9 15 18 6 9 -9
9 -15 0 -24z m-677 11 c-4 -6 -14 -8 -22 -5 -9 4 -22 1 -29 -5 -14 -11 -20 1
-7 14 11 12 65 8 58 -4z m5225 -69 c0 -5 -4 -10 -10 -10 -5 0 -10 5 -10 10 0
6 5 10 10 10 6 0 10 -4 10 -10z m-5850 -40 c0 -11 -6 -20 -14 -20 -7 0 -19 -7
-26 -15 -7 -8 -21 -15 -31 -15 -26 0 -25 37 1 45 11 4 18 11 15 16 -4 5 8 9
24 9 24 0 31 -4 31 -20z m5840 -40 c-20 -12 -24 -5 -15 27 l7 28 11 -23 c8
-18 8 -25 -3 -32z m-6250 -55 c0 -23 -2 -24 -20 -15 -23 12 -27 35 -5 26 8 -3
15 -1 15 4 0 6 2 10 5 10 3 0 5 -11 5 -25z m1570 -25 c0 -5 -4 -10 -10 -10 -5
0 -10 5 -10 10 0 6 5 10 10 10 6 0 10 -4 10 -10z m-1820 -20 c0 -11 -4 -20
-10 -20 -5 0 -10 9 -10 20 0 11 5 20 10 20 6 0 10 -9 10 -20z m664 -31 c-6
-11 -24 -2 -24 11 0 5 7 7 15 4 8 -4 12 -10 9 -15z m-114 7 c0 -11 -19 -15
-25 -6 -3 5 1 10 9 10 9 0 16 -2 16 -4z m820 -6 c0 -5 -7 -10 -16 -10 -8 0
-12 5 -9 10 3 6 10 10 16 10 5 0 9 -4 9 -10z m-925 -30 c3 -5 1 -10 -4 -10 -6
0 -11 5 -11 10 0 6 2 10 4 10 3 0 8 -4 11 -10z m6044 -41 c-11 -16 -25 -29
-30 -29 -5 0 -9 -9 -9 -20 0 -11 -4 -20 -10 -20 -5 0 -10 16 -10 35 0 42 45
91 67 73 10 -8 8 -17 -8 -39z m63 26 c0 -5 -5 -11 -11 -13 -6 -2 -11 4 -11 13
0 9 5 15 11 13 6 -2 11 -8 11 -13z m-6612 -100 c0 -14 -4 -25 -10 -25 -5 0
-10 11 -10 25 0 14 5 25 10 25 6 0 10 -11 10 -25z m20 -65 c0 -5 -5 -10 -11
-10 -5 0 -7 5 -4 10 3 6 8 10 11 10 2 0 4 -4 4 -10z m90 -20 c0 -5 -4 -10 -10
-10 -5 0 -10 5 -10 10 0 6 5 10 10 10 6 0 10 -4 10 -10z m202 -52 c-6 -6 -15
-8 -19 -4 -4 4 -1 11 7 16 19 12 27 3 12 -12z m2878 7 c0 -9 12 -21 28 -28 38
-17 62 -38 73 -64 5 -13 17 -23 28 -23 13 0 20 -9 25 -31 3 -17 4 -35 1 -39
-3 -4 2 -10 10 -14 25 -9 17 -24 -17 -32 -30 -7 -31 -8 -10 -13 30 -8 33 -25
6 -29 -12 -2 -24 -12 -27 -23 -4 -14 -1 -19 11 -17 9 2 18 -5 20 -16 3 -15 0
-18 -17 -13 -17 4 -21 1 -21 -19 0 -17 4 -22 15 -17 27 10 55 -25 48 -59 -4
-22 -2 -33 10 -40 10 -5 17 -19 17 -32 0 -12 3 -26 6 -29 14 -13 41 -108 33
-113 -5 -3 -6 -25 -2 -49 7 -51 -9 -62 -25 -17 -9 24 -11 24 -11 5 -1 -12 4
-34 11 -48 9 -19 9 -28 0 -37 -16 -16 -15 -28 3 -28 19 0 19 -10 -1 -38 -22
-32 -44 -28 -44 7 0 24 -3 28 -19 24 -12 -3 -21 -15 -23 -32 -3 -25 -6 -26
-50 -23 -37 3 -48 0 -48 -10 0 -23 9 -27 41 -18 32 10 35 4 14 -24 -9 -12 -20
-16 -32 -11 -10 4 -37 9 -60 12 -45 5 -62 -9 -43 -32 10 -12 7 -17 -15 -25
-34 -13 -62 -13 -70 0 -3 6 -15 10 -26 10 -10 0 -19 5 -19 11 0 5 -4 7 -10 4
-5 -3 -9 -21 -7 -38 2 -30 0 -32 -28 -29 -41 5 -42 8 -20 48 16 30 17 37 4 45
-15 9 -39 -13 -39 -38 0 -7 -4 -13 -10 -13 -13 0 -24 46 -16 66 4 9 1 23 -6
31 -10 12 -14 11 -30 -9 -15 -19 -19 -21 -27 -9 -6 10 -6 22 0 34 6 10 7 26 4
35 -6 14 -9 13 -17 -8 l-10 -25 -9 23 c-4 12 -13 22 -19 22 -6 0 -8 5 -5 11 4
5 21 8 38 5 18 -3 25 -3 17 1 -28 12 -64 72 -40 66 4 -1 4 14 -1 35 -5 20 -9
40 -9 45 0 4 -5 7 -11 7 -14 0 -59 47 -59 61 0 6 5 7 12 3 7 -5 9 -2 5 9 -4
11 -2 14 8 10 12 -4 13 0 3 28 -6 19 -15 39 -19 45 -5 6 -4 46 1 89 5 42 7 81
4 86 -8 14 30 11 45 -3 11 -11 13 -9 8 9 -3 13 -2 25 3 28 4 2 5 16 2 31 -4
23 -2 25 17 19 16 -5 21 -2 21 11 0 16 1 16 15 -2 9 -12 14 -14 15 -5 0 8 6
11 15 7 9 -3 20 3 27 14 7 11 18 20 24 20 17 0 123 58 161 89 31 24 34 30 31
71 -3 44 -2 45 32 51 56 10 60 10 60 -6z m3350 -35 c0 -5 -4 -10 -10 -10 -5 0
-10 5 -10 10 0 6 5 10 10 10 6 0 10 -4 10 -10z m-5069 -425 c2 -28 2 -27 8 8
6 40 24 51 29 18 3 -17 9 -19 35 -15 l32 6 -25 -21 c-14 -11 -31 -19 -37 -16
-7 2 -14 -3 -15 -13 0 -9 -2 -22 -2 -28 -2 -20 -39 -94 -47 -94 -4 0 -9 6 -12
13 -2 6 -8 8 -13 4 -4 -4 -3 -16 3 -26 8 -12 8 -22 1 -32 -8 -11 -9 -10 -4 4
3 11 0 17 -9 17 -10 0 -15 -11 -15 -35 0 -30 -3 -35 -24 -35 -16 0 -26 -7 -29
-21 -5 -17 -11 -20 -32 -17 -14 3 -28 1 -31 -3 -3 -5 4 -9 15 -9 12 0 21 -4
21 -9 0 -9 -60 -24 -68 -17 -8 8 7 54 23 70 8 8 15 25 15 39 0 13 9 32 20 42
12 10 18 25 16 32 -3 7 -1 13 4 13 6 0 10 8 10 19 0 12 13 25 35 35 26 13 35
23 35 41 0 14 8 29 20 35 12 6 20 21 21 38 0 24 1 25 9 7 5 -11 10 -33 11 -50z
m-51 45 c0 -5 -5 -10 -11 -10 -5 0 -7 5 -4 10 3 6 8 10 11 10 2 0 4 -4 4 -10z
m220 -94 c0 -8 -4 -18 -10 -21 -5 -3 -10 -22 -10 -41 0 -34 -12 -42 -38 -25
-20 12 -10 55 16 66 12 5 20 16 17 22 -2 7 2 13 10 13 8 0 15 -6 15 -14z m77
-32 c-9 -9 -28 6 -21 18 4 6 10 6 17 -1 6 -6 8 -13 4 -17z m183 -114 c0 -5 -5
-10 -11 -10 -5 0 -7 5 -4 10 3 6 8 10 11 10 2 0 4 -4 4 -10z m-196 -94 c-6
-24 -34 -38 -34 -16 0 24 -31 6 -51 -30 -27 -48 -39 -51 -39 -9 0 40 16 70 35
63 8 -4 15 -1 15 6 0 6 5 8 12 4 21 -13 47 -11 53 4 9 24 17 7 9 -22z m-347
-48 c-3 -7 -5 -2 -5 12 0 14 2 19 5 13 2 -7 2 -19 0 -25z m311 -39 c3 -11 2
-11 -7 1 -9 12 -11 11 -11 -9 0 -19 -3 -22 -11 -14 -14 14 -4 46 13 41 6 -2
13 -11 16 -19z m-48 -34 c0 -9 -6 -12 -16 -8 -13 5 -13 7 -2 14 17 11 18 11
18 -6z"/>
<path d="M2750 5780 c0 -5 5 -10 11 -10 5 0 7 5 4 10 -3 6 -8 10 -11 10 -2 0
-4 -4 -4 -10z"/>
<path d="M2860 5655 c0 -8 -7 -15 -15 -15 -8 0 -15 -5 -15 -11 0 -6 6 -9 13
-6 6 2 20 0 30 -5 22 -11 35 16 17 37 -16 19 -30 19 -30 0z"/>
<path d="M3001 5558 c0 -28 2 -30 9 -13 12 28 12 45 0 45 -5 0 -10 -15 -9 -32z"/>
<path d="M2816 5558 c-3 -13 -8 -45 -11 -72 -8 -58 -14 -76 -26 -76 -12 0 -12
37 0 42 5 2 12 18 16 36 5 26 3 32 -10 32 -20 0 -51 -68 -36 -83 5 -5 7 -16 4
-23 -3 -8 -2 -22 1 -31 6 -15 8 -15 16 -3 7 11 12 12 20 4 9 -9 6 -16 -9 -26
-18 -13 -19 -17 -8 -27 8 -6 17 -8 20 -4 13 12 7 -32 -6 -52 -17 -25 -21 -124
-7 -160 8 -22 7 -33 -6 -52 -14 -23 -14 -26 0 -42 9 -10 16 -25 16 -34 0 -25
-31 -97 -42 -97 -5 0 -7 -12 -3 -28 4 -20 1 -33 -10 -42 -8 -7 -15 -25 -15
-40 0 -16 -7 -30 -15 -34 -8 -3 -15 -16 -15 -30 0 -16 -7 -25 -21 -29 -14 -4
-20 -11 -16 -20 9 -23 -22 -59 -44 -52 -15 5 -19 1 -19 -19 0 -14 0 -29 0 -33
0 -5 6 -8 13 -8 7 0 11 9 9 23 -4 27 22 30 37 5 7 -12 13 -14 18 -7 5 6 18 14
31 18 12 4 22 14 22 22 0 8 7 17 15 20 9 4 25 26 36 51 24 52 55 88 63 70 4
-12 18 1 30 28 3 6 9 3 16 -5 9 -12 10 -10 4 10 -6 22 -5 23 10 11 10 -9 16
-10 16 -2 0 6 7 11 15 11 8 0 15 8 15 19 0 10 9 21 19 24 13 3 22 17 26 41 8
41 20 53 39 37 15 -12 26 4 26 38 0 10 11 31 25 47 19 23 25 25 25 12 0 -10
-4 -18 -10 -18 -5 0 -10 -9 -10 -20 0 -26 17 -26 25 0 4 11 10 18 15 15 4 -3
6 4 3 15 -4 16 -2 19 11 14 10 -4 19 1 23 12 5 11 15 19 23 19 10 0 15 10 15
30 0 31 15 55 34 55 6 0 11 -11 11 -25 0 -14 3 -25 6 -25 18 0 33 41 33 90 l1
55 -20 -25 c-10 -14 -22 -21 -26 -17 -4 4 -3 7 3 7 11 0 -4 98 -17 113 -4 5
-18 3 -30 -3 l-23 -12 29 -24 c25 -20 27 -25 14 -34 -8 -6 -25 -8 -36 -5 -16
3 -23 -1 -27 -15 -4 -16 0 -20 19 -20 25 0 32 -22 15 -48 -6 -10 -10 -10 -21
3 -7 8 -18 15 -26 15 -36 0 -66 90 -43 132 9 16 8 22 -2 29 -18 11 -39 -16
-39 -48 0 -13 -9 -31 -20 -40 -11 -10 -20 -23 -20 -30 0 -7 -4 -13 -9 -13 -13
0 0 93 15 111 8 8 14 26 14 40 0 42 11 68 26 62 8 -3 14 1 14 11 0 11 -9 16
-29 16 -20 0 -31 6 -34 18 -4 16 -5 16 -6 0 -2 -35 -21 -17 -21 20 0 20 -5 44
-10 52 -8 13 -10 12 -10 -3 0 -10 -4 -15 -10 -12 -5 3 -10 15 -10 26 0 10 -4
19 -10 19 -5 0 -10 -9 -10 -20 0 -11 -4 -20 -10 -20 -5 0 -10 -18 -10 -40 0
-22 -4 -40 -9 -40 -6 0 -12 -15 -14 -32 -2 -18 -5 -3 -5 34 -1 44 -7 72 -17
82 -8 8 -15 19 -15 25 0 21 -20 21 -24 -1z m104 -278 c0 -5 -2 -10 -4 -10 -3
0 -8 5 -11 10 -3 6 -1 10 4 10 6 0 11 -4 11 -10z m-94 -95 c0 -24 -3 -42 -8
-39 -9 6 -11 45 -2 68 9 22 9 21 10 -29z m-29 -27 c-3 -7 -5 -2 -5 12 0 14 2
19 5 13 2 -7 2 -19 0 -25z m123 -38 c0 -5 -4 -10 -9 -10 -6 0 -13 5 -16 10 -3
6 1 10 9 10 9 0 16 -4 16 -10z m67 -57 c-3 -10 -5 -4 -5 12 0 17 2 24 5 18 2
-7 2 -21 0 -30z m-17 20 c0 -5 -5 -15 -10 -23 -8 -12 -10 -11 -10 8 0 12 5 22
10 22 6 0 10 -3 10 -7z m77 -60 c-3 -10 -5 -4 -5 12 0 17 2 24 5 18 2 -7 2
-21 0 -30z m-55 -30 c-4 -46 -22 -60 -22 -17 0 23 18 70 24 62 2 -1 1 -22 -2
-45z m48 -13 c0 -5 -5 -10 -11 -10 -5 0 -7 5 -4 10 3 6 8 10 11 10 2 0 4 -4 4
-10z"/>
<path d="M3032 5560 c0 -14 2 -19 5 -12 2 6 2 18 0 25 -3 6 -5 1 -5 -13z"/>
<path d="M3040 5494 c0 -8 5 -12 10 -9 6 3 10 10 10 16 0 5 -4 9 -10 9 -5 0
-10 -7 -10 -16z"/>
<path d="M3106 5472 c-9 -15 4 -42 20 -42 18 0 18 11 1 35 -9 11 -16 14 -21 7z"/>
<path d="M3505 5402 c-39 -23 -66 -54 -59 -71 6 -17 -4 -51 -16 -51 -4 0 -6 9
-3 20 10 39 -26 18 -40 -23 -6 -15 -3 -17 13 -12 22 7 24 0 20 -63 -1 -30 1
-33 18 -28 20 7 38 -16 27 -34 -3 -5 -1 -11 5 -15 5 -3 12 7 16 22 4 15 15 44
26 63 10 19 18 42 18 52 0 10 6 37 14 60 26 80 27 94 8 95 -10 1 -31 -6 -47
-15z"/>
<path d="M3136 5352 c-10 -12 -19 -38 -20 -60 -2 -33 1 -38 16 -34 21 5 31 36
26 82 -3 32 -3 32 -22 12z"/>
<path d="M3600 5336 c0 -21 21 -31 30 -15 5 7 6 17 4 21 -9 14 -34 9 -34 -6z"/>
<path d="M3672 5291 c-11 -30 -10 -32 8 -26 14 5 20 2 20 -9 0 -9 5 -16 10
-16 13 0 13 0 -9 45 l-18 38 -11 -32z"/>
<path d="M3574 5269 c-3 -6 0 -30 7 -52 l14 -42 6 40 c9 55 -7 86 -27 54z"/>
<path d="M3661 5216 c-8 -9 -10 -28 -5 -52 7 -40 17 -32 27 23 7 36 -4 50 -22
29z"/>
<path d="M3631 5194 c0 -11 3 -14 6 -6 3 7 2 16 -1 19 -3 4 -6 -2 -5 -13z"/>
<path d="M3728 5183 c7 -3 16 -2 19 1 4 3 -2 6 -13 5 -11 0 -14 -3 -6 -6z"/>
<path d="M3417 5137 c-7 -18 3 -67 14 -67 5 0 9 -13 9 -30 0 -16 5 -30 10 -30
14 0 13 67 -1 76 -6 3 -9 15 -6 25 6 22 -18 47 -26 26z"/>
<path d="M3361 5100 c-6 -20 -17 -30 -30 -30 -25 0 -35 -29 -21 -64 14 -37 40
-31 63 14 17 35 17 35 24 10 l7 -25 7 29 c6 20 4 33 -7 43 -7 8 -14 23 -14 34
0 29 -17 23 -29 -11z"/>
<path d="M3622 5075 c0 -16 2 -22 5 -12 2 9 2 23 0 30 -3 6 -5 -1 -5 -18z"/>
<path d="M3652 4930 c0 -14 2 -19 5 -12 2 6 2 18 0 25 -3 6 -5 1 -5 -13z"/>
<path d="M3600 4918 c0 -19 2 -20 10 -8 13 19 13 30 0 30 -5 0 -10 -10 -10
-22z"/>
<path d="M2710 4840 c0 -5 5 -10 10 -10 6 0 10 5 10 10 0 6 -4 10 -10 10 -5 0
-10 -4 -10 -10z"/>
<path d="M2690 4780 c0 -5 5 -10 10 -10 6 0 10 5 10 10 0 6 -4 10 -10 10 -5 0
-10 -4 -10 -10z"/>
<path d="M3120 4509 c0 -11 4 -18 9 -15 5 3 11 -3 14 -14 5 -21 27 -28 27 -10
0 15 -31 60 -41 60 -5 0 -9 -9 -9 -21z"/>
<path d="M3931 4511 c-6 -11 -11 -27 -11 -37 0 -16 1 -16 20 1 21 19 26 40 11
50 -6 3 -15 -3 -20 -14z"/>
<path d="M3074 4468 c4 -18 9 -45 10 -60 2 -16 4 -33 5 -39 0 -5 15 -15 31
-21 35 -12 35 -27 -1 -45 -33 -17 -42 -56 -17 -77 15 -13 23 -14 33 -6 8 7 19
9 24 6 5 -4 13 -1 16 5 4 5 13 8 21 5 20 -8 17 3 -10 49 -17 27 -21 44 -15 51
14 17 0 66 -17 60 -7 -3 -23 3 -36 13 -18 15 -20 22 -10 33 9 11 8 19 -4 36
-23 33 -37 28 -30 -10z"/>
<path d="M2920 4456 c0 -25 12 -46 25 -46 14 0 24 28 18 48 -6 17 -43 15 -43
-2z"/>
<path d="M3630 4410 c-9 -6 -10 -10 -3 -10 6 0 15 5 18 10 8 12 4 12 -15 0z"/>
<path d="M2700 4398 c0 -17 20 -47 20 -31 0 6 3 18 6 27 4 11 1 16 -10 16 -9
0 -16 -6 -16 -12z"/>
<path d="M3363 4394 c0 -9 9 -19 19 -22 22 -5 24 -42 3 -42 -9 0 -15 -9 -15
-25 0 -14 -9 -34 -20 -45 -23 -23 -25 -38 -7 -60 19 -24 77 -52 93 -46 21 8
17 53 -6 73 -27 23 -26 53 1 53 16 0 20 5 17 23 -2 12 -9 21 -15 20 -6 -1 -9
6 -6 18 4 13 -4 28 -21 44 -31 29 -43 31 -43 9z"/>
<path d="M3332 4370 c0 -14 2 -19 5 -12 2 6 2 18 0 25 -3 6 -5 1 -5 -13z"/>
<path d="M3643 4318 c1 -7 -8 -14 -20 -16 -24 -4 -28 -12 -15 -27 5 -6 6 -21
1 -35 l-7 -25 -1 25 c-1 22 -3 23 -12 7 -13 -22 -5 -47 16 -47 9 0 15 -9 15
-24 0 -26 14 -40 48 -49 23 -5 32 16 11 28 -7 5 -3 14 10 27 20 18 20 45 1 33
-4 -3 -8 11 -8 30 0 19 4 35 9 35 5 0 9 5 9 10 0 6 -9 10 -20 10 -11 0 -20 7
-20 15 0 8 -4 15 -10 15 -5 0 -9 -6 -7 -12z m20 -101 c-3 -5 -10 -4 -15 1 -6
6 -7 16 -3 22 6 9 9 9 16 -1 4 -7 5 -17 2 -22z"/>
<path d="M3732 4290 c0 -19 2 -27 5 -17 2 9 2 25 0 35 -3 9 -5 1 -5 -18z"/>
<path d="M2594 4272 c-23 -22 -50 -43 -61 -46 -27 -9 -20 -56 8 -56 11 0 19 5
19 11 0 5 5 7 10 4 6 -3 10 0 10 8 0 8 14 33 31 56 42 58 32 72 -17 23z"/>
<path d="M3354 4147 c-5 -13 -13 -17 -30 -13 -22 6 -22 5 -8 -24 18 -36 34
-39 34 -7 1 20 2 20 11 5 12 -21 55 -24 62 -4 7 17 -1 26 -24 26 -10 0 -22 8
-28 18 -9 16 -10 16 -17 -1z"/>
<path d="M3150 4090 c0 -19 3 -21 12 -12 9 9 9 15 0 24 -9 9 -12 7 -12 -12z"/>
<path d="M2582 4091 c-9 -6 -7 -12 8 -26 25 -22 32 -17 17 12 -8 14 -17 19
-25 14z"/>
<path d="M2866 4085 c4 -8 11 -15 16 -15 6 0 5 6 -2 15 -7 8 -14 15 -16 15 -2
0 -1 -7 2 -15z"/>
<path d="M2448 4083 c7 -3 16 -2 19 1 4 3 -2 6 -13 5 -11 0 -14 -3 -6 -6z"/>
<path d="M2734 4076 c-8 -22 3 -33 18 -18 9 9 9 15 0 24 -9 9 -13 7 -18 -6z"/>
<path d="M2606 4014 c-9 -22 -8 -23 14 -17 11 3 20 12 20 19 0 19 -26 18 -34
-2z"/>
<path d="M3176 4015 c-3 -9 -6 -26 -5 -38 1 -16 4 -12 10 12 10 34 6 55 -5 26z"/>
<path d="M2297 3976 c-6 -16 16 -40 26 -29 4 3 7 15 7 25 0 21 -25 24 -33 4z"/>
<path d="M2248 3973 c7 -3 16 -2 19 1 4 3 -2 6 -13 5 -11 0 -14 -3 -6 -6z"/>
<path d="M2240 3920 c0 -13 5 -18 15 -14 8 4 15 10 15 14 0 4 -7 10 -15 14
-10 4 -15 -1 -15 -14z"/>
<path d="M3360 3935 c0 -3 9 -15 20 -27 l20 -22 0 27 c0 20 -5 27 -20 27 -11
0 -20 -2 -20 -5z"/>
<path d="M2434 3918 c-3 -5 -4 -11 -2 -13 7 -7 78 7 78 15 0 12 -69 10 -76 -2z"/>
<path d="M1325 5109 c-4 -6 -5 -13 -2 -16 7 -7 27 6 27 18 0 12 -17 12 -25 -2z"/>
<path d="M1407 5114 c-4 -4 -4 -10 -1 -15 6 -10 34 0 34 12 0 10 -24 12 -33 3z"/>
<path d="M1720 5040 c0 -5 5 -10 10 -10 6 0 10 5 10 10 0 6 -4 10 -10 10 -5 0
-10 -4 -10 -10z"/>
<path d="M5137 4559 c14 -13 46 -14 50 -2 3 7 -7 11 -27 11 -17 -1 -27 -5 -23
-9z"/>
<path d="M1210 4576 c0 -9 7 -16 16 -16 17 0 14 22 -4 28 -7 2 -12 -3 -12 -12z"/>
<path d="M1040 4550 c0 -5 7 -7 15 -4 8 4 15 8 15 10 0 2 -7 4 -15 4 -8 0 -15
-4 -15 -10z"/>
<path d="M1945 4480 c3 -5 10 -10 16 -10 5 0 9 5 9 10 0 6 -7 10 -16 10 -8 0
-12 -4 -9 -10z"/>
<path d="M2311 4304 c0 -11 3 -14 6 -6 3 7 2 16 -1 19 -3 4 -6 -2 -5 -13z"/>
<path d="M880 3984 c0 -8 5 -12 10 -9 6 4 8 11 5 16 -9 14 -15 11 -15 -7z"/>
<path d="M1020 3901 c0 -6 5 -13 10 -16 6 -3 10 1 10 9 0 9 -4 16 -10 16 -5 0
-10 -4 -10 -9z"/>
<path d="M1089 3703 c0 -4 -2 -18 -5 -30 -2 -13 0 -23 5 -23 12 0 20 49 10 56
-5 3 -9 2 -10 -3z"/>
<path d="M798 3583 c6 -2 18 -2 25 0 6 3 1 5 -13 5 -14 0 -19 -2 -12 -5z"/>
<path d="M770 3546 c0 -9 5 -16 10 -16 6 0 10 4 10 9 0 6 -4 13 -10 16 -5 3
-10 -1 -10 -9z"/>
<path d="M880 3504 c0 -8 5 -12 10 -9 6 4 8 11 5 16 -9 14 -15 11 -15 -7z"/>
<path d="M902 3465 c-16 -34 -15 -45 3 -45 18 0 38 37 31 56 -8 21 -21 17 -34
-11z"/>
<path d="M3521 3114 c0 -11 3 -14 6 -6 3 7 2 16 -1 19 -3 4 -6 -2 -5 -13z"/>
<path d="M4050 2965 c0 -15 4 -24 10 -20 6 3 10 12 10 20 0 8 -4 17 -10 20 -6
4 -10 -5 -10 -20z"/>
<path d="M4110 2751 c0 -12 5 -21 10 -21 6 0 10 6 10 14 0 8 -4 18 -10 21 -5
3 -10 -3 -10 -14z"/>
<path d="M4071 2664 c0 -11 3 -14 6 -6 3 7 2 16 -1 19 -3 4 -6 -2 -5 -13z"/>
<path d="M4100 2605 c0 -8 5 -15 10 -15 6 0 10 7 10 15 0 8 -4 15 -10 15 -5 0
-10 -7 -10 -15z"/>
<path d="M2080 2750 c0 -5 5 -10 10 -10 6 0 10 5 10 10 0 6 -4 10 -10 10 -5 0
-10 -4 -10 -10z"/>
<path d="M5825 7280 c3 -5 12 -7 20 -3 21 7 19 13 -6 13 -11 0 -18 -4 -14 -10z"/>
<path d="M6626 7275 c4 -8 7 -15 9 -15 2 0 5 7 9 15 3 9 0 15 -9 15 -9 0 -12
-6 -9 -15z"/>
<path d="M6664 7282 c3 -5 42 -10 88 -11 46 -2 106 -6 133 -8 28 -3 98 -7 157
-8 59 -1 118 -5 132 -9 13 -3 36 1 52 9 17 9 32 11 39 5 6 -5 30 -12 53 -16
40 -6 42 -6 42 20 l0 26 -351 0 c-192 0 -348 -4 -345 -8z"/>
<path d="M5795 6889 c-4 -12 -2 -26 4 -32 8 -8 11 -2 11 21 0 37 -6 41 -15 11z"/>
<path d="M6277 6754 c-13 -13 -7 -24 14 -24 11 0 19 5 17 12 -5 14 -22 21 -31
12z"/>
<path d="M6836 6733 c-9 -9 -7 -33 3 -33 12 0 22 28 12 34 -5 3 -11 3 -15 -1z"/>
<path d="M6872 6691 c2 -7 7 -12 11 -12 12 1 9 15 -3 20 -7 2 -11 -2 -8 -8z"/>
</g>
</svg>
